<svg height="416" version="1.1" width="837" xmlns="http://www.w3.org/2000/svg" xmlns:xlink="http://www.w3.org/1999/xlink" style="overflow: hidden; position: relative;" viewBox="0 0 837 416" preserveAspectRatio="xMidYMid meet"><desc>Created with Raphaël 2.1.2</desc><defs><path stroke-linecap="round" d="M5,0 0,2.5 5,5z" id="raphael-marker-block"/><marker id="raphael-marker-endblock33-obj737" markerHeight="3" markerWidth="3" orient="auto" refX="1.5" refY="1.5"><use href="#raphael-marker-block" transform="rotate(180 1.5 1.5) scale(0.6,0.6)" stroke-width="1.6667" fill="black" stroke="none"/></marker><marker id="raphael-marker-endblock33-obj738" markerHeight="3" markerWidth="3" orient="auto" refX="1.5" refY="1.5"><use href="#raphael-marker-block" transform="rotate(180 1.5 1.5) scale(0.6,0.6)" stroke-width="1.6667" fill="black" stroke="none"/></marker><marker id="raphael-marker-endblock33-obj739" markerHeight="3" markerWidth="3" orient="auto" refX="1.5" refY="1.5"><use href="#raphael-marker-block" transform="rotate(180 1.5 1.5) scale(0.6,0.6)" stroke-width="1.6667" fill="black" stroke="none"/></marker><marker id="raphael-marker-endblock33-obj741" markerHeight="3" markerWidth="3" orient="auto" refX="1.5" refY="1.5"><use href="#raphael-marker-block" transform="rotate(180 1.5 1.5) scale(0.6,0.6)" stroke-width="1.6667" fill="black" stroke="none"/></marker><marker id="raphael-marker-endblock33-obj743" markerHeight="3" markerWidth="3" orient="auto" refX="1.5" refY="1.5"><use href="#raphael-marker-block" transform="rotate(180 1.5 1.5) scale(0.6,0.6)" stroke-width="1.6667" fill="black" stroke="none"/></marker><marker id="raphael-marker-endblock33-obj745" markerHeight="3" markerWidth="3" orient="auto" refX="1.5" refY="1.5"><use href="#raphael-marker-block" transform="rotate(180 1.5 1.5) scale(0.6,0.6)" stroke-width="1.6667" fill="black" stroke="none"/></marker><marker id="raphael-marker-endblock33-obj747" markerHeight="3" markerWidth="3" orient="auto" refX="1.5" refY="1.5"><use href="#raphael-marker-block" transform="rotate(180 1.5 1.5) scale(0.6,0.6)" stroke-width="1.6667" fill="black" stroke="none"/></marker><marker id="raphael-marker-endblock33-obj748" markerHeight="3" markerWidth="3" orient="auto" refX="1.5" refY="1.5"><use href="#raphael-marker-block" transform="rotate(180 1.5 1.5) scale(0.6,0.6)" stroke-width="1.6667" fill="black" stroke="none"/></marker><marker id="raphael-marker-endblock33-obj749" markerHeight="3" markerWidth="3" orient="auto" refX="1.5" refY="1.5"><use href="#raphael-marker-block" transform="rotate(180 1.5 1.5) scale(0.6,0.6)" stroke-width="1.6667" fill="black" stroke="none"/></marker></defs><a href="http://www.google.com" show="new"><rect x="0" y="0" width="49" height="34" rx="20" ry="20" fill="#cccccc" stroke="#008000" style="" stroke-width="3" class="flowchart" id="ini" transform="matrix(1,0,0,1,69.5,26.5)"/></a><a href="http://www.google.com" show="new"><text style="text-anchor: start; font-family: &quot;Arial&quot;; font-size: 12px;" x="10" y="17" text-anchor="start" font-family="&quot;Arial&quot;" font-size="12px" stroke="none" fill="#ff0000" id="init" class="flowchartt" transform="matrix(1,0,0,1,69.5,26.5)" stroke-width="1"><tspan dy="4">Inicio</tspan></text></a><rect x="0" y="0" width="106" height="36" rx="0" ry="0" fill="#ffffff" stroke="#000000" style="" stroke-width="3" class="flowchart" id="op1" transform="matrix(1,0,0,1,41,136)"/><text style="text-anchor: start; font-family: &quot;Arial&quot;; font-size: 14px;" x="10" y="18" text-anchor="start" font-family="&quot;Arial&quot;" font-size="14px" stroke="none" fill="#000000" id="op1t" class="flowchartt" transform="matrix(1,0,0,1,41,136)" stroke-width="1"><tspan dy="5">My Operation</tspan></text><a href="http://www.google.com"><path style="" fill="#ffffff" stroke="#000000" d="M37.5,18.75L0,37.5L75,75L150,37.5L75,0L0,37.5" stroke-width="3" id="cond" class="flowchart" transform="matrix(1,0,0,1,216,116.5)"/></a><a href="http://www.google.com"><text style="text-anchor: start; font-family: &quot;Arial&quot;; font-size: 14px;" x="42.5" y="37.5" text-anchor="start" font-family="&quot;Arial&quot;" font-size="14px" stroke="none" fill="#000000" id="condt" class="flowchartt" transform="matrix(1,0,0,1,216,116.5)" stroke-width="1"><tspan dy="5">Yes or No?</tspan></text></a><path style="" fill="#ffffff" stroke="#000000" d="M36,18L0,36L72,72L144,36L72,0L0,36" stroke-width="3" id="c2" class="flowchart" transform="matrix(1,0,0,1,438,118)"/><text style="text-anchor: start; font-family: &quot;Arial&quot;; font-size: 14px;" x="41" y="36" text-anchor="start" font-family="&quot;Arial&quot;" font-size="14px" stroke="none" fill="#000000" id="c2t" class="flowchartt" transform="matrix(1,0,0,1,438,118)" stroke-width="1"><tspan dy="5">Good idea</tspan></text><path style="" fill="#ffffff" stroke="#000000" d="M10,18L0,36L156,36L176,0L20,0L10,18" stroke-width="3" id="io" class="flowchart" transform="matrix(1,0,0,1,422,265.5)"/><text style="text-anchor: start; font-family: &quot;Arial&quot;; font-size: 14px;" x="30" y="18" text-anchor="start" font-family="&quot;Arial&quot;" font-size="14px" stroke="none" fill="#000000" id="iot" class="flowchartt" transform="matrix(1,0,0,1,422,265.5)" stroke-width="1"><tspan dy="5">catch something...</tspan></text><a href="http://www.google.com"><rect x="0" y="0" width="40" height="36" rx="20" ry="20" fill="#ffff99" stroke="#000000" style="" stroke-width="3" class="end-element" id="fin" transform="matrix(1,0,0,1,490,377)"/></a><a href="http://www.google.com"><text style="text-anchor: start; font-family: &quot;Arial&quot;; font-size: 14px;" x="10" y="18" text-anchor="start" font-family="&quot;Arial&quot;" font-size="14px" stroke="none" fill="#000000" id="fint" class="end-elementt" transform="matrix(1,0,0,1,490,377)" stroke-width="1"><tspan dy="5">Fin</tspan></text></a><rect x="0" y="0" width="49" height="36" rx="0" ry="0" fill="#ffffff" stroke="#000000" style="" stroke-width="3" class="flowchart" id="op2" transform="matrix(1,0,0,1,701.5,136)"/><text style="text-anchor: start; font-family: &quot;Arial&quot;; font-size: 14px;" x="10" y="18" text-anchor="start" font-family="&quot;Arial&quot;" font-size="14px" stroke="none" fill="#000000" id="op2t" class="flowchartt" transform="matrix(1,0,0,1,701.5,136)" stroke-width="1"><tspan dy="5">Stuff</tspan></text><rect x="0" y="0" width="132" height="36" rx="0" ry="0" fill="#ffffff" stroke="#000000" style="" stroke-width="3" class="flowchart" id="sub1" transform="matrix(1,0,0,1,225,267)"/><rect x="10" y="0" width="112" height="36" rx="0" ry="0" fill="#ffffff" stroke="#000000" style="" stroke-width="3" id="sub1i" transform="matrix(1,0,0,1,225,267)"/><text style="text-anchor: start; font-family: &quot;Arial&quot;; font-size: 14px;" x="20" y="18" text-anchor="start" font-family="&quot;Arial&quot;" font-size="14px" stroke="none" fill="#000000" id="sub1t" class="flowchartt" transform="matrix(1,0,0,1,225,267)" stroke-width="1"><tspan dy="5">My Subroutine</tspan></text><path style="" fill="none" stroke="#000000" d="M94,60.5C94,60.5,94,115.24948120117188,94,131.50323343276978" stroke-width="3" marker-end="url(#raphael-marker-endblock33-obj737)"/><path style="" fill="none" stroke="#000000" d="M147,154C147,154,196.17894101142883,154,211.49933376791887,154" stroke-width="3" marker-end="url(#raphael-marker-endblock33-obj738)"/><path style="" fill="none" stroke="#000000" d="M366,154C366,154,417.7335205078125,154,433.4960775375366,154" stroke-width="3" marker-end="url(#raphael-marker-endblock33-obj739)"/><text style="text-anchor: start; font-family: &quot;Arial&quot;; font-size: 14px;" x="371" y="144" text-anchor="start" font-family="&quot;Arial&quot;" font-size="14px" stroke="none" fill="#000000" stroke-width="1"><tspan dy="5">yes</tspan></text><path style="" fill="none" stroke="#000000" d="M291,191.5C291,191.5,291,246.24948120117188,291,262.5032334327698" stroke-width="3" marker-end="url(#raphael-marker-endblock33-obj741)"/><text style="text-anchor: start; font-family: &quot;Arial&quot;; font-size: 14px;" x="296" y="201.5" text-anchor="start" font-family="&quot;Arial&quot;" font-size="14px" stroke="none" fill="#000000" stroke-width="1"><tspan dy="5">no</tspan></text><path style="" fill="none" stroke="#000000" d="M510,190C510,190,510,244.74948120117188,510,261.0032334327698" stroke-width="3" marker-end="url(#raphael-marker-endblock33-obj743)"/><text style="text-anchor: start; font-family: &quot;Arial&quot;; font-size: 14px;" x="515" y="200" text-anchor="start" font-family="&quot;Arial&quot;" font-size="14px" stroke="none" fill="#000000" stroke-width="1"><tspan dy="5">yes</tspan></text><path style="" fill="none" stroke="#000000" d="M582,154C582,154,675.2363222837448,154,696.9975342230173,154" stroke-width="3" marker-end="url(#raphael-marker-endblock33-obj745)"/><text style="text-anchor: start; font-family: &quot;Arial&quot;; font-size: 14px;" x="587" y="144" text-anchor="start" font-family="&quot;Arial&quot;" font-size="14px" stroke="none" fill="#000000" stroke-width="1"><tspan dy="5">no</tspan></text><path style="" fill="none" stroke="#000000" d="M510,301.5C510,301.5,510,356.2494812011719,510,372.5032334327698" stroke-width="3" marker-end="url(#raphael-marker-endblock33-obj747)"/><path style="" fill="none" stroke="#000000" d="M726,172C726,172,726,352,726,352C726,352,510,352,510,352C510,352,510,365.3039712905884,510,372.5016276333481" stroke-width="3" marker-end="url(#raphael-marker-endblock33-obj748)"/><path style="" fill="none" stroke="#000000" d="M225,285C225,285,159.5,285,159.5,285C159.5,285,159.5,160,159.5,160C159.5,160,171.5,154,159.5,148C159.5,148,159.5,111,159.5,111C159.5,111,94,111,94,111C94,111,94,124.30397129058838,94,131.5016276333481" stroke-width="3" marker-end="url(#raphael-marker-endblock33-obj749)"/></svg>