<?xml version="1.0" encoding="UTF-8" standalone="no"?>
<!DOCTYPE svg PUBLIC "-//W3C//DTD SVG 20010904//EN" "http://www.w3.org/TR/2001/REC-SVG-20010904/DTD/svg10.dtd">
<svg xmlns="http://www.w3.org/2000/svg" width="1535" height="940" xmlns:xlink="http://www.w3.org/1999/xlink"><source><![CDATA[Title: Solvencia Electrónica
Aportante-->Sirena Web (232): Solicitud
Sirena Web (232)-->>Postgre (143): Select
Sirena Web (232)-->>Informix (40): Insert
Sirena Web (232)-->>Postgre (143): Update
Note right of Sirena Web (232): Genera Solvencia
Note right of Sirena Web (232): Genera Pdf
Sirena Web (232)-->archivo (219): cp pdf sin firma
Presidencia-->archivo (219): crea pdf con firma
Note right of archivo (219): MONITOR: guarda pdf firmados en carpetas RIF
Note right of archivo (219): MONITOR: borra el pdf homónimo sin firma
archivo (219)-->>ws (53):orden de actualización de BD
ws (53)-->>Informix (40): Select
ws (53)-->>Postgre (143): Insert
Note right of archivo (219): MONITOR: agrega el RIF a una lista en caso fallido
Aportante-->ws (53):Busca su estado de solvencia
ws (53)-->>Postgre (143): Select
ws (53)-->>archivo (219): cat al pdf
ws (53)-->Aportante:Muestra estado de solvencia y permite descargar el pdf]]></source><desc>Created with Raphaël 2.1.2</desc><defs><path id="raphael-marker-block" d="M5,0 0,2.5 5,5z" stroke-linecap="round"/><marker refY="2.5" refX="2.5" orient="auto" markerWidth="5" markerHeight="5" id="raphael-marker-endblock55-obj356"><use stroke="none" fill="#000" stroke-width="1.0000" transform="rotate(180 2.5 2.5) scale(1,1)" xlink:href="#raphael-marker-block"/></marker><path id="raphael-marker-open" d="M6,1 1,3.5 6,6" stroke-linecap="round"/><marker refY="3.5" refX="4" orient="auto" markerWidth="7" markerHeight="7" id="raphael-marker-endopen77-obj359"><use stroke="#000" fill="none" stroke-width="1.0000" transform="rotate(180 3.5 3.5) scale(1,1)" xlink:href="#raphael-marker-open"/></marker><marker refY="3.5" refX="4" orient="auto" markerWidth="7" markerHeight="7" id="raphael-marker-endopen77-obj362"><use stroke="#000" fill="none" stroke-width="1.0000" transform="rotate(180 3.5 3.5) scale(1,1)" xlink:href="#raphael-marker-open"/></marker><marker refY="3.5" refX="4" orient="auto" markerWidth="7" markerHeight="7" id="raphael-marker-endopen77-obj365"><use stroke="#000" fill="none" stroke-width="1.0000" transform="rotate(180 3.5 3.5) scale(1,1)" xlink:href="#raphael-marker-open"/></marker><marker refY="2.5" refX="2.5" orient="auto" markerWidth="5" markerHeight="5" id="raphael-marker-endblock55-obj374"><use stroke="none" fill="#000" stroke-width="1.0000" transform="rotate(180 2.5 2.5) scale(1,1)" xlink:href="#raphael-marker-block"/></marker><marker refY="2.5" refX="2.5" orient="auto" markerWidth="5" markerHeight="5" id="raphael-marker-endblock55-obj377"><use stroke="none" fill="#000" stroke-width="1.0000" transform="rotate(180 2.5 2.5) scale(1,1)" xlink:href="#raphael-marker-block"/></marker><marker refY="3.5" refX="4" orient="auto" markerWidth="7" markerHeight="7" id="raphael-marker-endopen77-obj386"><use stroke="#000" fill="none" stroke-width="1.0000" transform="rotate(180 3.5 3.5) scale(1,1)" xlink:href="#raphael-marker-open"/></marker><marker refY="3.5" refX="4" orient="auto" markerWidth="7" markerHeight="7" id="raphael-marker-endopen77-obj389"><use stroke="#000" fill="none" stroke-width="1.0000" transform="rotate(180 3.5 3.5) scale(1,1)" xlink:href="#raphael-marker-open"/></marker><marker refY="3.5" refX="4" orient="auto" markerWidth="7" markerHeight="7" id="raphael-marker-endopen77-obj392"><use stroke="#000" fill="none" stroke-width="1.0000" transform="rotate(180 3.5 3.5) scale(1,1)" xlink:href="#raphael-marker-open"/></marker><marker refY="2.5" refX="2.5" orient="auto" markerWidth="5" markerHeight="5" id="raphael-marker-endblock55-obj398"><use stroke="none" fill="#000" stroke-width="1.0000" transform="rotate(180 2.5 2.5) scale(1,1)" xlink:href="#raphael-marker-block"/></marker><marker refY="3.5" refX="4" orient="auto" markerWidth="7" markerHeight="7" id="raphael-marker-endopen77-obj401"><use stroke="#000" fill="none" stroke-width="1.0000" transform="rotate(180 3.5 3.5) scale(1,1)" xlink:href="#raphael-marker-open"/></marker><marker refY="3.5" refX="4" orient="auto" markerWidth="7" markerHeight="7" id="raphael-marker-endopen77-obj404"><use stroke="#000" fill="none" stroke-width="1.0000" transform="rotate(180 3.5 3.5) scale(1,1)" xlink:href="#raphael-marker-open"/></marker><marker refY="2.5" refX="2.5" orient="auto" markerWidth="5" markerHeight="5" id="raphael-marker-endblock55-obj407"><use stroke="none" fill="#000" stroke-width="1.0000" transform="rotate(180 2.5 2.5) scale(1,1)" xlink:href="#raphael-marker-block"/></marker></defs><rect stroke-width="2" style="" stroke="#000000" fill="none" ry="0" rx="0" height="30" width="220" y="10" x="10"/><rect style="" stroke="none" fill="#ffffff" ry="0" rx="0" height="20" width="210" y="15" x="15"/><text fill="#000000" stroke="none" font-size="16px" font-family="Andale Mono, monospace" text-anchor="middle" y="25" x="120" style="text-anchor: middle; font-family: Andale Mono,monospace; font-size: 16px;"><tspan dy="5">Solvencia Electrónica</tspan></text><rect stroke-width="2" style="" stroke="#000000" fill="none" ry="0" rx="0" height="40" width="110" y="50" x="10"/><rect style="" stroke="none" fill="#ffffff" ry="0" rx="0" height="20" width="90" y="60" x="20"/><text fill="#000000" stroke="none" font-size="16px" font-family="Andale Mono, monospace" text-anchor="middle" y="70" x="65" style="text-anchor: middle; font-family: Andale Mono,monospace; font-size: 16px;"><tspan dy="5">Aportante</tspan></text><rect stroke-width="2" style="" stroke="#000000" fill="none" ry="0" rx="0" height="40" width="110" y="880" x="10"/><rect style="" stroke="none" fill="#ffffff" ry="0" rx="0" height="20" width="90" y="890" x="20"/><text fill="#000000" stroke="none" font-size="16px" font-family="Andale Mono, monospace" text-anchor="middle" y="900" x="65" style="text-anchor: middle; font-family: Andale Mono,monospace; font-size: 16px;"><tspan dy="5">Aportante</tspan></text><path stroke-width="2" d="M65,90L65,880" stroke="#000000" fill="none" style=""/><rect stroke-width="2" style="" stroke="#000000" fill="none" ry="0" rx="0" height="40" width="180" y="50" x="140"/><rect style="" stroke="none" fill="#ffffff" ry="0" rx="0" height="20" width="160" y="60" x="150"/><text fill="#000000" stroke="none" font-size="16px" font-family="Andale Mono, monospace" text-anchor="middle" y="70" x="230" style="text-anchor: middle; font-family: Andale Mono,monospace; font-size: 16px;"><tspan dy="5">Sirena Web (232)</tspan></text><rect stroke-width="2" style="" stroke="#000000" fill="none" ry="0" rx="0" height="40" width="180" y="880" x="140"/><rect style="" stroke="none" fill="#ffffff" ry="0" rx="0" height="20" width="160" y="890" x="150"/><text fill="#000000" stroke="none" font-size="16px" font-family="Andale Mono, monospace" text-anchor="middle" y="900" x="230" style="text-anchor: middle; font-family: Andale Mono,monospace; font-size: 16px;"><tspan dy="5">Sirena Web (232)</tspan></text><path stroke-width="2" d="M230,90L230,880" stroke="#000000" fill="none" style=""/><rect stroke-width="2" style="" stroke="#000000" fill="none" ry="0" rx="0" height="40" width="150" y="50" x="365"/><rect style="" stroke="none" fill="#ffffff" ry="0" rx="0" height="20" width="130" y="60" x="375"/><text fill="#000000" stroke="none" font-size="16px" font-family="Andale Mono, monospace" text-anchor="middle" y="70" x="440" style="text-anchor: middle; font-family: Andale Mono,monospace; font-size: 16px;"><tspan dy="5">Postgre (143)</tspan></text><rect stroke-width="2" style="" stroke="#000000" fill="none" ry="0" rx="0" height="40" width="150" y="880" x="365"/><rect style="" stroke="none" fill="#ffffff" ry="0" rx="0" height="20" width="130" y="890" x="375"/><text fill="#000000" stroke="none" font-size="16px" font-family="Andale Mono, monospace" text-anchor="middle" y="900" x="440" style="text-anchor: middle; font-family: Andale Mono,monospace; font-size: 16px;"><tspan dy="5">Postgre (143)</tspan></text><path stroke-width="2" d="M440,90L440,880" stroke="#000000" fill="none" style=""/><rect stroke-width="2" style="" stroke="#000000" fill="none" ry="0" rx="0" height="40" width="150" y="50" x="535"/><rect style="" stroke="none" fill="#ffffff" ry="0" rx="0" height="20" width="130" y="60" x="545"/><text fill="#000000" stroke="none" font-size="16px" font-family="Andale Mono, monospace" text-anchor="middle" y="70" x="610" style="text-anchor: middle; font-family: Andale Mono,monospace; font-size: 16px;"><tspan dy="5">Informix (40)</tspan></text><rect stroke-width="2" style="" stroke="#000000" fill="none" ry="0" rx="0" height="40" width="150" y="880" x="535"/><rect style="" stroke="none" fill="#ffffff" ry="0" rx="0" height="20" width="130" y="890" x="545"/><text fill="#000000" stroke="none" font-size="16px" font-family="Andale Mono, monospace" text-anchor="middle" y="900" x="610" style="text-anchor: middle; font-family: Andale Mono,monospace; font-size: 16px;"><tspan dy="5">Informix (40)</tspan></text><path stroke-width="2" d="M610,90L610,880" stroke="#000000" fill="none" style=""/><rect stroke-width="2" style="" stroke="#000000" fill="none" ry="0" rx="0" height="40" width="150" y="50" x="705"/><rect style="" stroke="none" fill="#ffffff" ry="0" rx="0" height="20" width="130" y="60" x="715"/><text fill="#000000" stroke="none" font-size="16px" font-family="Andale Mono, monospace" text-anchor="middle" y="70" x="780" style="text-anchor: middle; font-family: Andale Mono,monospace; font-size: 16px;"><tspan dy="5">archivo (219)</tspan></text><rect stroke-width="2" style="" stroke="#000000" fill="none" ry="0" rx="0" height="40" width="150" y="880" x="705"/><rect style="" stroke="none" fill="#ffffff" ry="0" rx="0" height="20" width="130" y="890" x="715"/><text fill="#000000" stroke="none" font-size="16px" font-family="Andale Mono, monospace" text-anchor="middle" y="900" x="780" style="text-anchor: middle; font-family: Andale Mono,monospace; font-size: 16px;"><tspan dy="5">archivo (219)</tspan></text><path stroke-width="2" d="M780,90L780,880" stroke="#000000" fill="none" style=""/><rect stroke-width="2" style="" stroke="#000000" fill="none" ry="0" rx="0" height="40" width="130" y="50" x="1265"/><rect style="" stroke="none" fill="#ffffff" ry="0" rx="0" height="20" width="110" y="60" x="1275"/><text fill="#000000" stroke="none" font-size="16px" font-family="Andale Mono, monospace" text-anchor="middle" y="70" x="1330" style="text-anchor: middle; font-family: Andale Mono,monospace; font-size: 16px;"><tspan dy="5">Presidencia</tspan></text><rect stroke-width="2" style="" stroke="#000000" fill="none" ry="0" rx="0" height="40" width="130" y="880" x="1265"/><rect style="" stroke="none" fill="#ffffff" ry="0" rx="0" height="20" width="110" y="890" x="1275"/><text fill="#000000" stroke="none" font-size="16px" font-family="Andale Mono, monospace" text-anchor="middle" y="900" x="1330" style="text-anchor: middle; font-family: Andale Mono,monospace; font-size: 16px;"><tspan dy="5">Presidencia</tspan></text><path stroke-width="2" d="M1330,90L1330,880" stroke="#000000" fill="none" style=""/><rect stroke-width="2" style="" stroke="#000000" fill="none" ry="0" rx="0" height="40" width="90" y="50" x="1415"/><rect style="" stroke="none" fill="#ffffff" ry="0" rx="0" height="20" width="70" y="60" x="1425"/><text fill="#000000" stroke="none" font-size="16px" font-family="Andale Mono, monospace" text-anchor="middle" y="70" x="1460" style="text-anchor: middle; font-family: Andale Mono,monospace; font-size: 16px;"><tspan dy="5">ws (53)</tspan></text><rect stroke-width="2" style="" stroke="#000000" fill="none" ry="0" rx="0" height="40" width="90" y="880" x="1415"/><rect style="" stroke="none" fill="#ffffff" ry="0" rx="0" height="20" width="70" y="890" x="1425"/><text fill="#000000" stroke="none" font-size="16px" font-family="Andale Mono, monospace" text-anchor="middle" y="900" x="1460" style="text-anchor: middle; font-family: Andale Mono,monospace; font-size: 16px;"><tspan dy="5">ws (53)</tspan></text><path stroke-width="2" d="M1460,90L1460,880" stroke="#000000" fill="none" style=""/><rect style="" stroke="none" fill="#ffffff" ry="0" rx="0" height="20" width="90" y="105" x="102.5"/><text fill="#000000" stroke="none" font-size="16px" font-family="Andale Mono, monospace" text-anchor="middle" y="115" x="147.5" style="text-anchor: middle; font-family: Andale Mono,monospace; font-size: 16px;"><tspan dy="5">Solicitud</tspan></text><path stroke-dasharray="6,2" marker-end="url(#raphael-marker-endblock55-obj356)" stroke-width="2" d="M65,130C65,130,197.3913076519966,130,224.9943781438924,130" stroke="#000000" fill="none" style=""/><rect style="" stroke="none" fill="#ffffff" ry="0" rx="0" height="20" width="60" y="145" x="305"/><text fill="#000000" stroke="none" font-size="16px" font-family="Andale Mono, monospace" text-anchor="middle" y="155" x="335" style="text-anchor: middle; font-family: Andale Mono,monospace; font-size: 16px;"><tspan dy="5">Select</tspan></text><path stroke-dasharray="6,2" marker-end="url(#raphael-marker-endopen77-obj359)" stroke-width="2" d="M230,170C230,170,416.5945702791214,170,438.0055683336104,170" stroke="#000000" fill="none" style=""/><rect style="" stroke="none" fill="#ffffff" ry="0" rx="0" height="20" width="60" y="185" x="390"/><text fill="#000000" stroke="none" font-size="16px" font-family="Andale Mono, monospace" text-anchor="middle" y="195" x="420" style="text-anchor: middle; font-family: Andale Mono,monospace; font-size: 16px;"><tspan dy="5">Insert</tspan></text><path stroke-dasharray="6,2" marker-end="url(#raphael-marker-endopen77-obj362)" stroke-width="2" d="M230,210C230,210,578.4005880355835,210,608.001028620638,210" stroke="#000000" fill="none" style=""/><rect style="" stroke="none" fill="#ffffff" ry="0" rx="0" height="20" width="60" y="225" x="305"/><text fill="#000000" stroke="none" font-size="16px" font-family="Andale Mono, monospace" text-anchor="middle" y="235" x="335" style="text-anchor: middle; font-family: Andale Mono,monospace; font-size: 16px;"><tspan dy="5">Update</tspan></text><path stroke-dasharray="6,2" marker-end="url(#raphael-marker-endopen77-obj365)" stroke-width="2" d="M230,250C230,250,416.5945702791214,250,438.0055683336104,250" stroke="#000000" fill="none" style=""/><rect stroke-width="2" style="" stroke="#000000" fill="none" ry="0" rx="0" height="30" width="170" y="270" x="250"/><rect style="" stroke="none" fill="#ffffff" ry="0" rx="0" height="20" width="160" y="275" x="255"/><text fill="#000000" stroke="none" font-size="16px" font-family="Andale Mono, monospace" text-anchor="middle" y="285" x="335" style="text-anchor: middle; font-family: Andale Mono,monospace; font-size: 16px;"><tspan dy="5">Genera Solvencia</tspan></text><rect stroke-width="2" style="" stroke="#000000" fill="none" ry="0" rx="0" height="30" width="110" y="320" x="250"/><rect style="" stroke="none" fill="#ffffff" ry="0" rx="0" height="20" width="100" y="325" x="255"/><text fill="#000000" stroke="none" font-size="16px" font-family="Andale Mono, monospace" text-anchor="middle" y="335" x="305" style="text-anchor: middle; font-family: Andale Mono,monospace; font-size: 16px;"><tspan dy="5">Genera Pdf</tspan></text><rect style="" stroke="none" fill="#ffffff" ry="0" rx="0" height="20" width="160" y="365" x="425"/><text fill="#000000" stroke="none" font-size="16px" font-family="Andale Mono, monospace" text-anchor="middle" y="375" x="505" style="text-anchor: middle; font-family: Andale Mono,monospace; font-size: 16px;"><tspan dy="5">cp pdf sin firma</tspan></text><path stroke-dasharray="6,2" marker-end="url(#raphael-marker-endblock55-obj374)" stroke-width="2" d="M230,390C230,390,719.96661901474,390,774.9921670486219,390" stroke="#000000" fill="none" style=""/><rect style="" stroke="none" fill="#ffffff" ry="0" rx="0" height="20" width="180" y="405" x="965"/><text fill="#000000" stroke="none" font-size="16px" font-family="Andale Mono, monospace" text-anchor="middle" y="415" x="1055" style="text-anchor: middle; font-family: Andale Mono,monospace; font-size: 16px;"><tspan dy="5">crea pdf con firma</tspan></text><path stroke-dasharray="6,2" marker-end="url(#raphael-marker-endblock55-obj377)" stroke-width="2" d="M1330,430C1330,430,840.03338098526,430,785.0078329513781,430" stroke="#000000" fill="none" style=""/><rect stroke-width="2" style="" stroke="#000000" fill="none" ry="0" rx="0" height="30" width="450" y="450" x="800"/><rect style="" stroke="none" fill="#ffffff" ry="0" rx="0" height="20" width="440" y="455" x="805"/><text fill="#000000" stroke="none" font-size="16px" font-family="Andale Mono, monospace" text-anchor="middle" y="465" x="1025" style="text-anchor: middle; font-family: Andale Mono,monospace; font-size: 16px;"><tspan dy="5">MONITOR: guarda pdf firmados en carpetas RIF</tspan></text><rect stroke-width="2" style="" stroke="#000000" fill="none" ry="0" rx="0" height="30" width="410" y="500" x="800"/><rect style="" stroke="none" fill="#ffffff" ry="0" rx="0" height="20" width="400" y="505" x="805"/><text fill="#000000" stroke="none" font-size="16px" font-family="Andale Mono, monospace" text-anchor="middle" y="515" x="1005" style="text-anchor: middle; font-family: Andale Mono,monospace; font-size: 16px;"><tspan dy="5">MONITOR: borra el pdf homónimo sin firma</tspan></text><rect style="" stroke="none" fill="#ffffff" ry="0" rx="0" height="20" width="280" y="545" x="980"/><text fill="#000000" stroke="none" font-size="16px" font-family="Andale Mono, monospace" text-anchor="middle" y="555" x="1120" style="text-anchor: middle; font-family: Andale Mono,monospace; font-size: 16px;"><tspan dy="5">orden de actualización de BD</tspan></text><path stroke-dasharray="6,2" marker-end="url(#raphael-marker-endopen77-obj386)" stroke-width="2" d="M780,570C780,570,1417.6816707849503,570,1458.003827213979,570" stroke="#000000" fill="none" style=""/><rect style="" stroke="none" fill="#ffffff" ry="0" rx="0" height="20" width="60" y="585" x="1005"/><text fill="#000000" stroke="none" font-size="16px" font-family="Andale Mono, monospace" text-anchor="middle" y="595" x="1035" style="text-anchor: middle; font-family: Andale Mono,monospace; font-size: 16px;"><tspan dy="5">Select</tspan></text><path stroke-dasharray="6,2" marker-end="url(#raphael-marker-endopen77-obj389)" stroke-width="2" d="M1460,610C1460,610,657.462797164917,610,612.0065884105861,610" stroke="#000000" fill="none" style=""/><rect style="" stroke="none" fill="#ffffff" ry="0" rx="0" height="20" width="60" y="625" x="920"/><text fill="#000000" stroke="none" font-size="16px" font-family="Andale Mono, monospace" text-anchor="middle" y="635" x="950" style="text-anchor: middle; font-family: Andale Mono,monospace; font-size: 16px;"><tspan dy="5">Insert</tspan></text><path stroke-dasharray="6,2" marker-end="url(#raphael-marker-endopen77-obj392)" stroke-width="2" d="M1460,650C1460,650,491.8672624230385,650,441.9951902480534,650" stroke="#000000" fill="none" style=""/><rect stroke-width="2" style="" stroke="#000000" fill="none" ry="0" rx="0" height="30" width="510" y="670" x="800"/><rect style="" stroke="none" fill="#ffffff" ry="0" rx="0" height="20" width="500" y="675" x="805"/><text fill="#000000" stroke="none" font-size="16px" font-family="Andale Mono, monospace" text-anchor="middle" y="685" x="1055" style="text-anchor: middle; font-family: Andale Mono,monospace; font-size: 16px;"><tspan dy="5">MONITOR: agrega el RIF a una lista en caso fallido</tspan></text><rect style="" stroke="none" fill="#ffffff" ry="0" rx="0" height="20" width="280" y="715" x="622.5"/><text fill="#000000" stroke="none" font-size="16px" font-family="Andale Mono, monospace" text-anchor="middle" y="725" x="762.5" style="text-anchor: middle; font-family: Andale Mono,monospace; font-size: 16px;"><tspan dy="5">Busca su estado de solvencia</tspan></text><path stroke-dasharray="6,2" marker-end="url(#raphael-marker-endblock55-obj398)" stroke-width="2" d="M65,740C65,740,1364.1311803273857,740,1455.0005853966718,740" stroke="#000000" fill="none" style=""/><rect style="" stroke="none" fill="#ffffff" ry="0" rx="0" height="20" width="60" y="755" x="920"/><text fill="#000000" stroke="none" font-size="16px" font-family="Andale Mono, monospace" text-anchor="middle" y="765" x="950" style="text-anchor: middle; font-family: Andale Mono,monospace; font-size: 16px;"><tspan dy="5">Select</tspan></text><path stroke-dasharray="6,2" marker-end="url(#raphael-marker-endopen77-obj401)" stroke-width="2" d="M1460,780C1460,780,491.8672624230385,780,441.9951902480534,780" stroke="#000000" fill="none" style=""/><rect style="" stroke="none" fill="#ffffff" ry="0" rx="0" height="20" width="100" y="795" x="1070"/><text fill="#000000" stroke="none" font-size="16px" font-family="Andale Mono, monospace" text-anchor="middle" y="805" x="1120" style="text-anchor: middle; font-family: Andale Mono,monospace; font-size: 16px;"><tspan dy="5">cat al pdf</tspan></text><path stroke-dasharray="6,2" marker-end="url(#raphael-marker-endopen77-obj404)" stroke-width="2" d="M1460,820C1460,820,822.3183292150497,820,781.9961727860209,820" stroke="#000000" fill="none" style=""/><rect style="" stroke="none" fill="#ffffff" ry="0" rx="0" height="20" width="540" y="835" x="492.5"/><text fill="#000000" stroke="none" font-size="16px" font-family="Andale Mono, monospace" text-anchor="middle" y="845" x="762.5" style="text-anchor: middle; font-family: Andale Mono,monospace; font-size: 16px;"><tspan dy="5">Muestra estado de solvencia y permite descargar el pdf</tspan></text><path stroke-dasharray="6,2" marker-end="url(#raphael-marker-endblock55-obj407)" stroke-width="2" d="M1460,860C1460,860,160.86881967261434,860,69.9994146033282,860" stroke="#000000" fill="none" style=""/></svg>